<mxfile host="65bd71144e">
    <diagram id="dfMMm38E5qG-qeg2q2bQ" name="Page-1">
        <mxGraphModel dx="1477" dy="1406" grid="1" gridSize="10" guides="1" tooltips="1" connect="1" arrows="1" fold="1" page="1" pageScale="1" pageWidth="827" pageHeight="1169" background="#ffffff" math="0" shadow="0">
            <root>
                <mxCell id="0"/>
                <mxCell id="1" parent="0"/>
                <mxCell id="6" value="Products" style="swimlane;fontStyle=0;childLayout=stackLayout;horizontal=1;startSize=26;horizontalStack=0;resizeParent=1;resizeParentMax=0;resizeLast=0;collapsible=1;marginBottom=0;fillColor=#A8DADC;strokeColor=#457B9D;fontColor=#1D3557;" parent="1" vertex="1">
                    <mxGeometry x="-430" y="-1050" width="140" height="208" as="geometry"/>
                </mxCell>
                <mxCell id="7" value="id (PK) TINYINT" style="text;strokeColor=none;fillColor=none;align=left;verticalAlign=top;spacingLeft=4;spacingRight=4;overflow=hidden;rotatable=0;points=[[0,0.5],[1,0.5]];portConstraint=eastwest;fontColor=#1D3557;" parent="6" vertex="1">
                    <mxGeometry y="26" width="140" height="26" as="geometry"/>
                </mxCell>
                <mxCell id="8" value="name VARCHAR (100)" style="text;strokeColor=none;fillColor=none;align=left;verticalAlign=top;spacingLeft=4;spacingRight=4;overflow=hidden;rotatable=0;points=[[0,0.5],[1,0.5]];portConstraint=eastwest;fontColor=#1D3557;" parent="6" vertex="1">
                    <mxGeometry y="52" width="140" height="26" as="geometry"/>
                </mxCell>
                <mxCell id="10" value="image VARCHAR (150)" style="text;strokeColor=none;fillColor=none;align=left;verticalAlign=top;spacingLeft=4;spacingRight=4;overflow=hidden;rotatable=0;points=[[0,0.5],[1,0.5]];portConstraint=eastwest;fontColor=#1D3557;" parent="6" vertex="1">
                    <mxGeometry y="78" width="140" height="26" as="geometry"/>
                </mxCell>
                <mxCell id="11" value="min VARCHAR (100)" style="text;strokeColor=none;fillColor=none;align=left;verticalAlign=top;spacingLeft=4;spacingRight=4;overflow=hidden;rotatable=0;points=[[0,0.5],[1,0.5]];portConstraint=eastwest;fontColor=#1D3557;" parent="6" vertex="1">
                    <mxGeometry y="104" width="140" height="26" as="geometry"/>
                </mxCell>
                <mxCell id="12" value="max VARCHAR (100)" style="text;strokeColor=none;fillColor=none;align=left;verticalAlign=top;spacingLeft=4;spacingRight=4;overflow=hidden;rotatable=0;points=[[0,0.5],[1,0.5]];portConstraint=eastwest;fontColor=#1D3557;" parent="6" vertex="1">
                    <mxGeometry y="130" width="140" height="26" as="geometry"/>
                </mxCell>
                <mxCell id="13" value="category(FK) TINYINT" style="text;strokeColor=none;fillColor=none;align=left;verticalAlign=top;spacingLeft=4;spacingRight=4;overflow=hidden;rotatable=0;points=[[0,0.5],[1,0.5]];portConstraint=eastwest;fontColor=#1D3557;" parent="6" vertex="1">
                    <mxGeometry y="156" width="140" height="26" as="geometry"/>
                </mxCell>
                <mxCell id="14" value="range VARCHAR (100)" style="text;strokeColor=none;fillColor=none;align=left;verticalAlign=top;spacingLeft=4;spacingRight=4;overflow=hidden;rotatable=0;points=[[0,0.5],[1,0.5]];portConstraint=eastwest;fontColor=#1D3557;" parent="6" vertex="1">
                    <mxGeometry y="182" width="140" height="26" as="geometry"/>
                </mxCell>
                <mxCell id="736" value="" style="endArrow=none;html=1;fontColor=#FFFFFF;entryX=0;entryY=0.049;entryDx=0;entryDy=0;entryPerimeter=0;strokeColor=#000000;exitX=-0.003;exitY=0.156;exitDx=0;exitDy=0;exitPerimeter=0;" parent="6" source="7" target="6" edge="1">
                    <mxGeometry width="50" height="50" relative="1" as="geometry">
                        <mxPoint x="-1" y="33" as="sourcePoint"/>
                        <mxPoint x="-1.17999999999995" y="10" as="targetPoint"/>
                        <Array as="points">
                            <mxPoint x="-9.590000000000032" y="20"/>
                        </Array>
                    </mxGeometry>
                </mxCell>
                <mxCell id="15" value="Privileges" style="swimlane;fontStyle=0;childLayout=stackLayout;horizontal=1;startSize=26;horizontalStack=0;resizeParent=1;resizeParentMax=0;resizeLast=0;collapsible=1;marginBottom=0;fillColor=#A8DADC;strokeColor=#457B9D;fontColor=#1D3557;" parent="1" vertex="1">
                    <mxGeometry x="-660" y="-728" width="147" height="78" as="geometry"/>
                </mxCell>
                <mxCell id="16" value="id (PK) TINYINT" style="text;strokeColor=none;fillColor=none;align=left;verticalAlign=top;spacingLeft=4;spacingRight=4;overflow=hidden;rotatable=0;points=[[0,0.5],[1,0.5]];portConstraint=eastwest;fontColor=#1D3557;" parent="15" vertex="1">
                    <mxGeometry y="26" width="147" height="26" as="geometry"/>
                </mxCell>
                <mxCell id="17" value="privilege VARCHAR (150)" style="text;strokeColor=none;fillColor=none;align=left;verticalAlign=top;spacingLeft=4;spacingRight=4;overflow=hidden;rotatable=0;points=[[0,0.5],[1,0.5]];portConstraint=eastwest;fontColor=#1D3557;" parent="15" vertex="1">
                    <mxGeometry y="52" width="147" height="26" as="geometry"/>
                </mxCell>
                <mxCell id="19" value="Categories" style="swimlane;fontStyle=0;childLayout=stackLayout;horizontal=1;startSize=26;horizontalStack=0;resizeParent=1;resizeParentMax=0;resizeLast=0;collapsible=1;marginBottom=0;fillColor=#A8DADC;strokeColor=#457B9D;fontColor=#1D3557;swimlaneFillColor=none;" parent="1" vertex="1">
                    <mxGeometry x="-656" y="-1040" width="143" height="104" as="geometry"/>
                </mxCell>
                <mxCell id="20" value="id (PK) TINYINT" style="text;strokeColor=none;fillColor=none;align=left;verticalAlign=top;spacingLeft=4;spacingRight=4;overflow=hidden;rotatable=0;points=[[0,0.5],[1,0.5]];portConstraint=eastwest;fontColor=#1D3557;" parent="19" vertex="1">
                    <mxGeometry y="26" width="143" height="26" as="geometry"/>
                </mxCell>
                <mxCell id="21" value="name VARCHAR (100)" style="text;strokeColor=none;fillColor=none;align=left;verticalAlign=top;spacingLeft=4;spacingRight=4;overflow=hidden;rotatable=0;points=[[0,0.5],[1,0.5]];portConstraint=eastwest;fontColor=#1D3557;" parent="19" vertex="1">
                    <mxGeometry y="52" width="143" height="26" as="geometry"/>
                </mxCell>
                <mxCell id="22" value="color VARCHAR (100)" style="text;strokeColor=none;fillColor=none;align=left;verticalAlign=top;spacingLeft=4;spacingRight=4;overflow=hidden;rotatable=0;points=[[0,0.5],[1,0.5]];portConstraint=eastwest;fontColor=#1D3557;" parent="19" vertex="1">
                    <mxGeometry y="78" width="143" height="26" as="geometry"/>
                </mxCell>
                <mxCell id="53" value="Users" style="swimlane;fontStyle=0;childLayout=stackLayout;horizontal=1;startSize=26;horizontalStack=0;resizeParent=1;resizeParentMax=0;resizeLast=0;collapsible=1;marginBottom=0;fillColor=#A8DADC;strokeColor=#457B9D;fontColor=#1D3557;" parent="1" vertex="1">
                    <mxGeometry y="-1040" width="198" height="338" as="geometry"/>
                </mxCell>
                <mxCell id="54" value="id (PK) INT" style="text;strokeColor=none;fillColor=none;align=left;verticalAlign=top;spacingLeft=4;spacingRight=4;overflow=hidden;rotatable=0;points=[[0,0.5],[1,0.5]];portConstraint=eastwest;fontColor=#1D3557;" parent="53" vertex="1">
                    <mxGeometry y="26" width="198" height="26" as="geometry"/>
                </mxCell>
                <mxCell id="55" value="firstName VARCHAR (100)" style="text;strokeColor=none;fillColor=none;align=left;verticalAlign=top;spacingLeft=4;spacingRight=4;overflow=hidden;rotatable=0;points=[[0,0.5],[1,0.5]];portConstraint=eastwest;fontColor=#1D3557;" parent="53" vertex="1">
                    <mxGeometry y="52" width="198" height="26" as="geometry"/>
                </mxCell>
                <mxCell id="56" value="lastName VARCHAR (100)" style="text;strokeColor=none;fillColor=none;align=left;verticalAlign=top;spacingLeft=4;spacingRight=4;overflow=hidden;rotatable=0;points=[[0,0.5],[1,0.5]];portConstraint=eastwest;fontColor=#1D3557;" parent="53" vertex="1">
                    <mxGeometry y="78" width="198" height="26" as="geometry"/>
                </mxCell>
                <mxCell id="57" value="email VARCHAR (100)" style="text;strokeColor=none;fillColor=none;align=left;verticalAlign=top;spacingLeft=4;spacingRight=4;overflow=hidden;rotatable=0;points=[[0,0.5],[1,0.5]];portConstraint=eastwest;fontColor=#1D3557;" parent="53" vertex="1">
                    <mxGeometry y="104" width="198" height="26" as="geometry"/>
                </mxCell>
                <mxCell id="58" value="birthDate DATE" style="text;strokeColor=none;fillColor=none;align=left;verticalAlign=top;spacingLeft=4;spacingRight=4;overflow=hidden;rotatable=0;points=[[0,0.5],[1,0.5]];portConstraint=eastwest;fontColor=#1D3557;" parent="53" vertex="1">
                    <mxGeometry y="130" width="198" height="26" as="geometry"/>
                </mxCell>
                <mxCell id="59" value="adress VARCHAR (100)" style="text;strokeColor=none;fillColor=none;align=left;verticalAlign=top;spacingLeft=4;spacingRight=4;overflow=hidden;rotatable=0;points=[[0,0.5],[1,0.5]];portConstraint=eastwest;fontColor=#1D3557;" parent="53" vertex="1">
                    <mxGeometry y="156" width="198" height="26" as="geometry"/>
                </mxCell>
                <mxCell id="60" value="phoneNumber BIGINT" style="text;strokeColor=none;fillColor=none;align=left;verticalAlign=top;spacingLeft=4;spacingRight=4;overflow=hidden;rotatable=0;points=[[0,0.5],[1,0.5]];portConstraint=eastwest;fontColor=#1D3557;" parent="53" vertex="1">
                    <mxGeometry y="182" width="198" height="26" as="geometry"/>
                </mxCell>
                <mxCell id="61" value="country VARCHAR (100)" style="text;strokeColor=none;fillColor=none;align=left;verticalAlign=top;spacingLeft=4;spacingRight=4;overflow=hidden;rotatable=0;points=[[0,0.5],[1,0.5]];portConstraint=eastwest;fontColor=#1D3557;" parent="53" vertex="1">
                    <mxGeometry y="208" width="198" height="26" as="geometry"/>
                </mxCell>
                <mxCell id="62" value="password VARCHAR (100)" style="text;strokeColor=none;fillColor=none;align=left;verticalAlign=top;spacingLeft=4;spacingRight=4;overflow=hidden;rotatable=0;points=[[0,0.5],[1,0.5]];portConstraint=eastwest;fontColor=#1D3557;" parent="53" vertex="1">
                    <mxGeometry y="234" width="198" height="26" as="geometry"/>
                </mxCell>
                <mxCell id="75" value="medioDePago VARCHAR (100)" style="text;strokeColor=none;fillColor=none;align=left;verticalAlign=top;spacingLeft=4;spacingRight=4;overflow=hidden;rotatable=0;points=[[0,0.5],[1,0.5]];portConstraint=eastwest;fontColor=#1D3557;" parent="53" vertex="1">
                    <mxGeometry y="260" width="198" height="26" as="geometry"/>
                </mxCell>
                <mxCell id="76" value="avatar VARCHAR (100)" style="text;strokeColor=none;fillColor=none;align=left;verticalAlign=top;spacingLeft=4;spacingRight=4;overflow=hidden;rotatable=0;points=[[0,0.5],[1,0.5]];portConstraint=eastwest;fontColor=#1D3557;" parent="53" vertex="1">
                    <mxGeometry y="286" width="198" height="26" as="geometry"/>
                </mxCell>
                <mxCell id="773" value="isAdmin TINYINT (1)" style="text;strokeColor=none;fillColor=none;align=left;verticalAlign=top;spacingLeft=4;spacingRight=4;overflow=hidden;rotatable=0;points=[[0,0.5],[1,0.5]];portConstraint=eastwest;fontColor=#1D3557;" parent="53" vertex="1">
                    <mxGeometry y="312" width="198" height="26" as="geometry"/>
                </mxCell>
                <mxCell id="84" value="Donaciones" style="swimlane;fontStyle=0;childLayout=stackLayout;horizontal=1;startSize=26;horizontalStack=0;resizeParent=1;resizeParentMax=0;resizeLast=0;collapsible=1;marginBottom=0;fillColor=#A8DADC;strokeColor=#457B9D;fontColor=#1D3557;" parent="1" vertex="1">
                    <mxGeometry x="-240" y="-1040" width="190" height="156" as="geometry"/>
                </mxCell>
                <mxCell id="85" value="id(PK) TINYINT" style="text;strokeColor=none;fillColor=none;align=left;verticalAlign=top;spacingLeft=4;spacingRight=4;overflow=hidden;rotatable=0;points=[[0,0.5],[1,0.5]];portConstraint=eastwest;fontColor=#1D3557;" parent="84" vertex="1">
                    <mxGeometry y="26" width="190" height="26" as="geometry"/>
                </mxCell>
                <mxCell id="86" value="user_id(FK) TINYINT" style="text;strokeColor=none;fillColor=none;align=left;verticalAlign=top;spacingLeft=4;spacingRight=4;overflow=hidden;rotatable=0;points=[[0,0.5],[1,0.5]];portConstraint=eastwest;fontColor=#1D3557;" parent="84" vertex="1">
                    <mxGeometry y="52" width="190" height="26" as="geometry"/>
                </mxCell>
                <mxCell id="762" value="product_id(FK) TINYINT" style="text;strokeColor=none;fillColor=none;align=left;verticalAlign=top;spacingLeft=4;spacingRight=4;overflow=hidden;rotatable=0;points=[[0,0.5],[1,0.5]];portConstraint=eastwest;fontColor=#1D3557;" parent="84" vertex="1">
                    <mxGeometry y="78" width="190" height="26" as="geometry"/>
                </mxCell>
                <mxCell id="763" value="quantity_donate SMALLINT" style="text;strokeColor=none;fillColor=none;align=left;verticalAlign=top;spacingLeft=4;spacingRight=4;overflow=hidden;rotatable=0;points=[[0,0.5],[1,0.5]];portConstraint=eastwest;fontColor=#1D3557;" parent="84" vertex="1">
                    <mxGeometry y="104" width="190" height="26" as="geometry"/>
                </mxCell>
                <mxCell id="764" value="date DATE" style="text;strokeColor=none;fillColor=none;align=left;verticalAlign=top;spacingLeft=4;spacingRight=4;overflow=hidden;rotatable=0;points=[[0,0.5],[1,0.5]];portConstraint=eastwest;fontColor=#1D3557;" parent="84" vertex="1">
                    <mxGeometry y="130" width="190" height="26" as="geometry"/>
                </mxCell>
                <mxCell id="94" value="" style="endArrow=none;html=1;fontColor=#FFFFFF;strokeColor=#000000;" parent="1" edge="1">
                    <mxGeometry width="50" height="50" relative="1" as="geometry">
                        <mxPoint x="-592.5" y="-740" as="sourcePoint"/>
                        <mxPoint x="-572.5" y="-740" as="targetPoint"/>
                    </mxGeometry>
                </mxCell>
                <mxCell id="103" value="Categories_privileges" style="swimlane;fontStyle=0;childLayout=stackLayout;horizontal=1;startSize=26;horizontalStack=0;resizeParent=1;resizeParentMax=0;resizeLast=0;collapsible=1;marginBottom=0;fillColor=#A8DADC;strokeColor=#457B9D;fontColor=#1D3557;" parent="1" vertex="1">
                    <mxGeometry x="-660" y="-870" width="147" height="100" as="geometry"/>
                </mxCell>
                <mxCell id="104" value="id (PK) INTEGER" style="text;strokeColor=none;fillColor=none;align=left;verticalAlign=top;spacingLeft=4;spacingRight=4;overflow=hidden;rotatable=0;points=[[0,0.5],[1,0.5]];portConstraint=eastwest;fontColor=#1D3557;" parent="103" vertex="1">
                    <mxGeometry y="26" width="147" height="26" as="geometry"/>
                </mxCell>
                <mxCell id="105" value="category_id(FK) TINYINT" style="text;strokeColor=none;fillColor=none;align=left;verticalAlign=top;spacingLeft=4;spacingRight=4;overflow=hidden;rotatable=0;points=[[0,0.5],[1,0.5]];portConstraint=eastwest;fontColor=#1D3557;" parent="103" vertex="1">
                    <mxGeometry y="52" width="147" height="26" as="geometry"/>
                </mxCell>
                <mxCell id="106" value="privilege_id(FK) TINYINT" style="text;strokeColor=none;fillColor=none;align=left;verticalAlign=top;spacingLeft=4;spacingRight=4;overflow=hidden;rotatable=0;points=[[0,0.5],[1,0.5]];portConstraint=eastwest;fontColor=#1D3557;" parent="103" vertex="1">
                    <mxGeometry y="78" width="147" height="22" as="geometry"/>
                </mxCell>
                <mxCell id="109" value="" style="endArrow=none;html=1;fontColor=#FFFFFF;strokeColor=#000000;" parent="1" edge="1">
                    <mxGeometry width="50" height="50" relative="1" as="geometry">
                        <mxPoint x="-592.5" y="-920" as="sourcePoint"/>
                        <mxPoint x="-572.5" y="-920" as="targetPoint"/>
                    </mxGeometry>
                </mxCell>
                <mxCell id="112" value="" style="endArrow=none;html=1;fontColor=#FFFFFF;strokeColor=#000000;" parent="1" edge="1">
                    <mxGeometry width="50" height="50" relative="1" as="geometry">
                        <mxPoint x="-500" y="-1010" as="sourcePoint"/>
                        <mxPoint x="-500" y="-1030" as="targetPoint"/>
                    </mxGeometry>
                </mxCell>
                <mxCell id="120" value="" style="endArrow=none;html=1;fontColor=#FFFFFF;entryX=0.577;entryY=0.999;entryDx=0;entryDy=0;entryPerimeter=0;strokeColor=#000000;" parent="1" edge="1">
                    <mxGeometry width="50" height="50" relative="1" as="geometry">
                        <mxPoint x="-593.5" y="-770" as="sourcePoint"/>
                        <mxPoint x="-573.181" y="-770.022" as="targetPoint"/>
                        <Array as="points">
                            <mxPoint x="-583.5" y="-760"/>
                        </Array>
                    </mxGeometry>
                </mxCell>
                <mxCell id="573" value="" style="shape=table;startSize=0;container=1;collapsible=0;childLayout=tableLayout;" parent="1" vertex="1">
                    <mxGeometry x="-130" y="-160" width="240" height="10" as="geometry"/>
                </mxCell>
                <mxCell id="574" value="" style="shape=partialRectangle;collapsible=0;dropTarget=0;pointerEvents=0;fillColor=none;top=0;left=0;bottom=0;right=0;points=[[0,0.5],[1,0.5]];portConstraint=eastwest;" parent="573" vertex="1">
                    <mxGeometry width="240" height="1" as="geometry"/>
                </mxCell>
                <mxCell id="575" value="" style="shape=partialRectangle;html=1;whiteSpace=wrap;connectable=0;overflow=hidden;fillColor=none;top=0;left=0;bottom=0;right=0;" parent="574" vertex="1">
                    <mxGeometry width="19" height="1" as="geometry"/>
                </mxCell>
                <mxCell id="576" value="" style="shape=partialRectangle;html=1;whiteSpace=wrap;connectable=0;overflow=hidden;fillColor=none;top=0;left=0;bottom=0;right=0;" parent="574" vertex="1">
                    <mxGeometry x="19" width="19" height="1" as="geometry"/>
                </mxCell>
                <mxCell id="577" value="" style="shape=partialRectangle;html=1;whiteSpace=wrap;connectable=0;overflow=hidden;fillColor=none;top=0;left=0;bottom=0;right=0;" parent="574" vertex="1">
                    <mxGeometry x="38" width="24" height="1" as="geometry"/>
                </mxCell>
                <mxCell id="578" value="" style="shape=partialRectangle;html=1;whiteSpace=wrap;connectable=0;overflow=hidden;fillColor=none;top=0;left=0;bottom=0;right=0;" parent="574" vertex="1">
                    <mxGeometry x="62" width="20" height="1" as="geometry"/>
                </mxCell>
                <mxCell id="579" value="" style="shape=partialRectangle;html=1;whiteSpace=wrap;connectable=0;overflow=hidden;fillColor=none;top=0;left=0;bottom=0;right=0;" parent="574" vertex="1">
                    <mxGeometry x="82" width="19" height="1" as="geometry"/>
                </mxCell>
                <mxCell id="580" value="" style="shape=partialRectangle;html=1;whiteSpace=wrap;connectable=0;overflow=hidden;fillColor=none;top=0;left=0;bottom=0;right=0;" parent="574" vertex="1">
                    <mxGeometry x="101" width="19" height="1" as="geometry"/>
                </mxCell>
                <mxCell id="581" value="" style="shape=partialRectangle;html=1;whiteSpace=wrap;connectable=0;overflow=hidden;fillColor=none;top=0;left=0;bottom=0;right=0;" parent="574" vertex="1">
                    <mxGeometry x="120" width="19" height="1" as="geometry"/>
                </mxCell>
                <mxCell id="582" value="" style="shape=partialRectangle;html=1;whiteSpace=wrap;connectable=0;overflow=hidden;fillColor=none;top=0;left=0;bottom=0;right=0;" parent="574" vertex="1">
                    <mxGeometry x="139" width="19" height="1" as="geometry"/>
                </mxCell>
                <mxCell id="583" value="" style="shape=partialRectangle;html=1;whiteSpace=wrap;connectable=0;overflow=hidden;fillColor=none;top=0;left=0;bottom=0;right=0;" parent="574" vertex="1">
                    <mxGeometry x="158" width="20" height="1" as="geometry"/>
                </mxCell>
                <mxCell id="584" value="" style="shape=partialRectangle;html=1;whiteSpace=wrap;connectable=0;overflow=hidden;fillColor=none;top=0;left=0;bottom=0;right=0;" parent="574" vertex="1">
                    <mxGeometry x="178" width="19" height="1" as="geometry"/>
                </mxCell>
                <mxCell id="585" value="" style="shape=partialRectangle;html=1;whiteSpace=wrap;connectable=0;overflow=hidden;fillColor=none;top=0;left=0;bottom=0;right=0;" parent="574" vertex="1">
                    <mxGeometry x="197" width="24" height="1" as="geometry"/>
                </mxCell>
                <mxCell id="586" value="" style="shape=partialRectangle;html=1;whiteSpace=wrap;connectable=0;overflow=hidden;fillColor=none;top=0;left=0;bottom=0;right=0;" parent="574" vertex="1">
                    <mxGeometry x="221" width="19" height="1" as="geometry"/>
                </mxCell>
                <mxCell id="587" value="" style="shape=partialRectangle;collapsible=0;dropTarget=0;pointerEvents=0;fillColor=none;top=0;left=0;bottom=0;right=0;points=[[0,0.5],[1,0.5]];portConstraint=eastwest;" parent="573" vertex="1">
                    <mxGeometry y="1" width="240" height="1" as="geometry"/>
                </mxCell>
                <mxCell id="588" value="" style="shape=partialRectangle;html=1;whiteSpace=wrap;connectable=0;overflow=hidden;fillColor=none;top=0;left=0;bottom=0;right=0;" parent="587" vertex="1">
                    <mxGeometry width="19" height="1" as="geometry"/>
                </mxCell>
                <mxCell id="589" value="" style="shape=partialRectangle;html=1;whiteSpace=wrap;connectable=0;overflow=hidden;fillColor=none;top=0;left=0;bottom=0;right=0;" parent="587" vertex="1">
                    <mxGeometry x="19" width="19" height="1" as="geometry"/>
                </mxCell>
                <mxCell id="590" value="" style="shape=partialRectangle;html=1;whiteSpace=wrap;connectable=0;overflow=hidden;fillColor=none;top=0;left=0;bottom=0;right=0;" parent="587" vertex="1">
                    <mxGeometry x="38" width="24" height="1" as="geometry"/>
                </mxCell>
                <mxCell id="591" value="" style="shape=partialRectangle;html=1;whiteSpace=wrap;connectable=0;overflow=hidden;fillColor=none;top=0;left=0;bottom=0;right=0;" parent="587" vertex="1">
                    <mxGeometry x="62" width="20" height="1" as="geometry"/>
                </mxCell>
                <mxCell id="592" value="" style="shape=partialRectangle;html=1;whiteSpace=wrap;connectable=0;overflow=hidden;fillColor=none;top=0;left=0;bottom=0;right=0;" parent="587" vertex="1">
                    <mxGeometry x="82" width="19" height="1" as="geometry"/>
                </mxCell>
                <mxCell id="593" value="" style="shape=partialRectangle;html=1;whiteSpace=wrap;connectable=0;overflow=hidden;fillColor=none;top=0;left=0;bottom=0;right=0;" parent="587" vertex="1">
                    <mxGeometry x="101" width="19" height="1" as="geometry"/>
                </mxCell>
                <mxCell id="594" value="" style="shape=partialRectangle;html=1;whiteSpace=wrap;connectable=0;overflow=hidden;fillColor=none;top=0;left=0;bottom=0;right=0;" parent="587" vertex="1">
                    <mxGeometry x="120" width="19" height="1" as="geometry"/>
                </mxCell>
                <mxCell id="595" value="" style="shape=partialRectangle;html=1;whiteSpace=wrap;connectable=0;overflow=hidden;fillColor=none;top=0;left=0;bottom=0;right=0;" parent="587" vertex="1">
                    <mxGeometry x="139" width="19" height="1" as="geometry"/>
                </mxCell>
                <mxCell id="596" value="" style="shape=partialRectangle;html=1;whiteSpace=wrap;connectable=0;overflow=hidden;fillColor=none;top=0;left=0;bottom=0;right=0;" parent="587" vertex="1">
                    <mxGeometry x="158" width="20" height="1" as="geometry"/>
                </mxCell>
                <mxCell id="597" value="" style="shape=partialRectangle;html=1;whiteSpace=wrap;connectable=0;overflow=hidden;fillColor=none;top=0;left=0;bottom=0;right=0;" parent="587" vertex="1">
                    <mxGeometry x="178" width="19" height="1" as="geometry"/>
                </mxCell>
                <mxCell id="598" value="" style="shape=partialRectangle;html=1;whiteSpace=wrap;connectable=0;overflow=hidden;fillColor=none;top=0;left=0;bottom=0;right=0;" parent="587" vertex="1">
                    <mxGeometry x="197" width="24" height="1" as="geometry"/>
                </mxCell>
                <mxCell id="599" value="" style="shape=partialRectangle;html=1;whiteSpace=wrap;connectable=0;overflow=hidden;fillColor=none;top=0;left=0;bottom=0;right=0;" parent="587" vertex="1">
                    <mxGeometry x="221" width="19" height="1" as="geometry"/>
                </mxCell>
                <mxCell id="600" value="" style="shape=partialRectangle;collapsible=0;dropTarget=0;pointerEvents=0;fillColor=none;top=0;left=0;bottom=0;right=0;points=[[0,0.5],[1,0.5]];portConstraint=eastwest;" parent="573" vertex="1">
                    <mxGeometry y="2" width="240" height="1" as="geometry"/>
                </mxCell>
                <mxCell id="601" value="" style="shape=partialRectangle;html=1;whiteSpace=wrap;connectable=0;overflow=hidden;fillColor=none;top=0;left=0;bottom=0;right=0;" parent="600" vertex="1">
                    <mxGeometry width="19" height="1" as="geometry"/>
                </mxCell>
                <mxCell id="602" value="" style="shape=partialRectangle;html=1;whiteSpace=wrap;connectable=0;overflow=hidden;fillColor=none;top=0;left=0;bottom=0;right=0;" parent="600" vertex="1">
                    <mxGeometry x="19" width="19" height="1" as="geometry"/>
                </mxCell>
                <mxCell id="603" value="" style="shape=partialRectangle;html=1;whiteSpace=wrap;connectable=0;overflow=hidden;fillColor=none;top=0;left=0;bottom=0;right=0;" parent="600" vertex="1">
                    <mxGeometry x="38" width="24" height="1" as="geometry"/>
                </mxCell>
                <mxCell id="604" value="" style="shape=partialRectangle;html=1;whiteSpace=wrap;connectable=0;overflow=hidden;fillColor=none;top=0;left=0;bottom=0;right=0;" parent="600" vertex="1">
                    <mxGeometry x="62" width="20" height="1" as="geometry"/>
                </mxCell>
                <mxCell id="605" value="" style="shape=partialRectangle;html=1;whiteSpace=wrap;connectable=0;overflow=hidden;fillColor=none;top=0;left=0;bottom=0;right=0;" parent="600" vertex="1">
                    <mxGeometry x="82" width="19" height="1" as="geometry"/>
                </mxCell>
                <mxCell id="606" value="" style="shape=partialRectangle;html=1;whiteSpace=wrap;connectable=0;overflow=hidden;fillColor=none;top=0;left=0;bottom=0;right=0;" parent="600" vertex="1">
                    <mxGeometry x="101" width="19" height="1" as="geometry"/>
                </mxCell>
                <mxCell id="607" value="" style="shape=partialRectangle;html=1;whiteSpace=wrap;connectable=0;overflow=hidden;fillColor=none;top=0;left=0;bottom=0;right=0;" parent="600" vertex="1">
                    <mxGeometry x="120" width="19" height="1" as="geometry"/>
                </mxCell>
                <mxCell id="608" value="" style="shape=partialRectangle;html=1;whiteSpace=wrap;connectable=0;overflow=hidden;fillColor=none;top=0;left=0;bottom=0;right=0;" parent="600" vertex="1">
                    <mxGeometry x="139" width="19" height="1" as="geometry"/>
                </mxCell>
                <mxCell id="609" value="" style="shape=partialRectangle;html=1;whiteSpace=wrap;connectable=0;overflow=hidden;fillColor=none;top=0;left=0;bottom=0;right=0;" parent="600" vertex="1">
                    <mxGeometry x="158" width="20" height="1" as="geometry"/>
                </mxCell>
                <mxCell id="610" value="" style="shape=partialRectangle;html=1;whiteSpace=wrap;connectable=0;overflow=hidden;fillColor=none;top=0;left=0;bottom=0;right=0;" parent="600" vertex="1">
                    <mxGeometry x="178" width="19" height="1" as="geometry"/>
                </mxCell>
                <mxCell id="611" value="" style="shape=partialRectangle;html=1;whiteSpace=wrap;connectable=0;overflow=hidden;fillColor=none;top=0;left=0;bottom=0;right=0;" parent="600" vertex="1">
                    <mxGeometry x="197" width="24" height="1" as="geometry"/>
                </mxCell>
                <mxCell id="612" value="" style="shape=partialRectangle;html=1;whiteSpace=wrap;connectable=0;overflow=hidden;fillColor=none;top=0;left=0;bottom=0;right=0;" parent="600" vertex="1">
                    <mxGeometry x="221" width="19" height="1" as="geometry"/>
                </mxCell>
                <mxCell id="613" value="" style="shape=partialRectangle;collapsible=0;dropTarget=0;pointerEvents=0;fillColor=none;top=0;left=0;bottom=0;right=0;points=[[0,0.5],[1,0.5]];portConstraint=eastwest;" parent="573" vertex="1">
                    <mxGeometry y="3" width="240" as="geometry"/>
                </mxCell>
                <mxCell id="614" value="" style="shape=partialRectangle;html=1;whiteSpace=wrap;connectable=0;overflow=hidden;fillColor=none;top=0;left=0;bottom=0;right=0;" parent="613" vertex="1">
                    <mxGeometry width="19" as="geometry"/>
                </mxCell>
                <mxCell id="615" value="" style="shape=partialRectangle;html=1;whiteSpace=wrap;connectable=0;overflow=hidden;fillColor=none;top=0;left=0;bottom=0;right=0;" parent="613" vertex="1">
                    <mxGeometry x="19" width="19" as="geometry"/>
                </mxCell>
                <mxCell id="616" value="" style="shape=partialRectangle;html=1;whiteSpace=wrap;connectable=0;overflow=hidden;fillColor=none;top=0;left=0;bottom=0;right=0;" parent="613" vertex="1">
                    <mxGeometry x="38" width="24" as="geometry"/>
                </mxCell>
                <mxCell id="617" value="" style="shape=partialRectangle;html=1;whiteSpace=wrap;connectable=0;overflow=hidden;fillColor=none;top=0;left=0;bottom=0;right=0;" parent="613" vertex="1">
                    <mxGeometry x="62" width="20" as="geometry"/>
                </mxCell>
                <mxCell id="618" value="" style="shape=partialRectangle;html=1;whiteSpace=wrap;connectable=0;overflow=hidden;fillColor=none;top=0;left=0;bottom=0;right=0;" parent="613" vertex="1">
                    <mxGeometry x="82" width="19" as="geometry"/>
                </mxCell>
                <mxCell id="619" value="" style="shape=partialRectangle;html=1;whiteSpace=wrap;connectable=0;overflow=hidden;fillColor=none;top=0;left=0;bottom=0;right=0;" parent="613" vertex="1">
                    <mxGeometry x="101" width="19" as="geometry"/>
                </mxCell>
                <mxCell id="620" value="" style="shape=partialRectangle;html=1;whiteSpace=wrap;connectable=0;overflow=hidden;fillColor=none;top=0;left=0;bottom=0;right=0;" parent="613" vertex="1">
                    <mxGeometry x="120" width="19" as="geometry"/>
                </mxCell>
                <mxCell id="621" value="" style="shape=partialRectangle;html=1;whiteSpace=wrap;connectable=0;overflow=hidden;fillColor=none;top=0;left=0;bottom=0;right=0;" parent="613" vertex="1">
                    <mxGeometry x="139" width="19" as="geometry"/>
                </mxCell>
                <mxCell id="622" value="" style="shape=partialRectangle;html=1;whiteSpace=wrap;connectable=0;overflow=hidden;fillColor=none;top=0;left=0;bottom=0;right=0;" parent="613" vertex="1">
                    <mxGeometry x="158" width="20" as="geometry"/>
                </mxCell>
                <mxCell id="623" value="" style="shape=partialRectangle;html=1;whiteSpace=wrap;connectable=0;overflow=hidden;fillColor=none;top=0;left=0;bottom=0;right=0;" parent="613" vertex="1">
                    <mxGeometry x="178" width="19" as="geometry"/>
                </mxCell>
                <mxCell id="624" value="" style="shape=partialRectangle;html=1;whiteSpace=wrap;connectable=0;overflow=hidden;fillColor=none;top=0;left=0;bottom=0;right=0;" parent="613" vertex="1">
                    <mxGeometry x="197" width="24" as="geometry"/>
                </mxCell>
                <mxCell id="625" value="" style="shape=partialRectangle;html=1;whiteSpace=wrap;connectable=0;overflow=hidden;fillColor=none;top=0;left=0;bottom=0;right=0;" parent="613" vertex="1">
                    <mxGeometry x="221" width="19" as="geometry"/>
                </mxCell>
                <mxCell id="626" value="" style="shape=partialRectangle;collapsible=0;dropTarget=0;pointerEvents=0;fillColor=none;top=0;left=0;bottom=0;right=0;points=[[0,0.5],[1,0.5]];portConstraint=eastwest;" parent="573" vertex="1">
                    <mxGeometry y="3" width="240" height="1" as="geometry"/>
                </mxCell>
                <mxCell id="627" value="" style="shape=partialRectangle;html=1;whiteSpace=wrap;connectable=0;overflow=hidden;fillColor=none;top=0;left=0;bottom=0;right=0;" parent="626" vertex="1">
                    <mxGeometry width="19" height="1" as="geometry"/>
                </mxCell>
                <mxCell id="628" value="" style="shape=partialRectangle;html=1;whiteSpace=wrap;connectable=0;overflow=hidden;fillColor=none;top=0;left=0;bottom=0;right=0;" parent="626" vertex="1">
                    <mxGeometry x="19" width="19" height="1" as="geometry"/>
                </mxCell>
                <mxCell id="629" value="" style="shape=partialRectangle;html=1;whiteSpace=wrap;connectable=0;overflow=hidden;fillColor=none;top=0;left=0;bottom=0;right=0;" parent="626" vertex="1">
                    <mxGeometry x="38" width="24" height="1" as="geometry"/>
                </mxCell>
                <mxCell id="630" value="" style="shape=partialRectangle;html=1;whiteSpace=wrap;connectable=0;overflow=hidden;fillColor=none;top=0;left=0;bottom=0;right=0;" parent="626" vertex="1">
                    <mxGeometry x="62" width="20" height="1" as="geometry"/>
                </mxCell>
                <mxCell id="631" value="" style="shape=partialRectangle;html=1;whiteSpace=wrap;connectable=0;overflow=hidden;fillColor=none;top=0;left=0;bottom=0;right=0;" parent="626" vertex="1">
                    <mxGeometry x="82" width="19" height="1" as="geometry"/>
                </mxCell>
                <mxCell id="632" value="" style="shape=partialRectangle;html=1;whiteSpace=wrap;connectable=0;overflow=hidden;fillColor=none;top=0;left=0;bottom=0;right=0;" parent="626" vertex="1">
                    <mxGeometry x="101" width="19" height="1" as="geometry"/>
                </mxCell>
                <mxCell id="633" value="" style="shape=partialRectangle;html=1;whiteSpace=wrap;connectable=0;overflow=hidden;fillColor=none;top=0;left=0;bottom=0;right=0;" parent="626" vertex="1">
                    <mxGeometry x="120" width="19" height="1" as="geometry"/>
                </mxCell>
                <mxCell id="634" value="" style="shape=partialRectangle;html=1;whiteSpace=wrap;connectable=0;overflow=hidden;fillColor=none;top=0;left=0;bottom=0;right=0;" parent="626" vertex="1">
                    <mxGeometry x="139" width="19" height="1" as="geometry"/>
                </mxCell>
                <mxCell id="635" value="" style="shape=partialRectangle;html=1;whiteSpace=wrap;connectable=0;overflow=hidden;fillColor=none;top=0;left=0;bottom=0;right=0;" parent="626" vertex="1">
                    <mxGeometry x="158" width="20" height="1" as="geometry"/>
                </mxCell>
                <mxCell id="636" value="" style="shape=partialRectangle;html=1;whiteSpace=wrap;connectable=0;overflow=hidden;fillColor=none;top=0;left=0;bottom=0;right=0;" parent="626" vertex="1">
                    <mxGeometry x="178" width="19" height="1" as="geometry"/>
                </mxCell>
                <mxCell id="637" value="" style="shape=partialRectangle;html=1;whiteSpace=wrap;connectable=0;overflow=hidden;fillColor=none;top=0;left=0;bottom=0;right=0;" parent="626" vertex="1">
                    <mxGeometry x="197" width="24" height="1" as="geometry"/>
                </mxCell>
                <mxCell id="638" value="" style="shape=partialRectangle;html=1;whiteSpace=wrap;connectable=0;overflow=hidden;fillColor=none;top=0;left=0;bottom=0;right=0;" parent="626" vertex="1">
                    <mxGeometry x="221" width="19" height="1" as="geometry"/>
                </mxCell>
                <mxCell id="639" value="" style="shape=partialRectangle;collapsible=0;dropTarget=0;pointerEvents=0;fillColor=none;top=0;left=0;bottom=0;right=0;points=[[0,0.5],[1,0.5]];portConstraint=eastwest;" parent="573" vertex="1">
                    <mxGeometry y="4" width="240" height="1" as="geometry"/>
                </mxCell>
                <mxCell id="640" value="" style="shape=partialRectangle;html=1;whiteSpace=wrap;connectable=0;overflow=hidden;fillColor=none;top=0;left=0;bottom=0;right=0;" parent="639" vertex="1">
                    <mxGeometry width="19" height="1" as="geometry"/>
                </mxCell>
                <mxCell id="641" value="" style="shape=partialRectangle;html=1;whiteSpace=wrap;connectable=0;overflow=hidden;fillColor=none;top=0;left=0;bottom=0;right=0;" parent="639" vertex="1">
                    <mxGeometry x="19" width="19" height="1" as="geometry"/>
                </mxCell>
                <mxCell id="642" value="" style="shape=partialRectangle;html=1;whiteSpace=wrap;connectable=0;overflow=hidden;fillColor=none;top=0;left=0;bottom=0;right=0;" parent="639" vertex="1">
                    <mxGeometry x="38" width="24" height="1" as="geometry"/>
                </mxCell>
                <mxCell id="643" value="" style="shape=partialRectangle;html=1;whiteSpace=wrap;connectable=0;overflow=hidden;fillColor=none;top=0;left=0;bottom=0;right=0;" parent="639" vertex="1">
                    <mxGeometry x="62" width="20" height="1" as="geometry"/>
                </mxCell>
                <mxCell id="644" value="" style="shape=partialRectangle;html=1;whiteSpace=wrap;connectable=0;overflow=hidden;fillColor=none;top=0;left=0;bottom=0;right=0;" parent="639" vertex="1">
                    <mxGeometry x="82" width="19" height="1" as="geometry"/>
                </mxCell>
                <mxCell id="645" value="" style="shape=partialRectangle;html=1;whiteSpace=wrap;connectable=0;overflow=hidden;fillColor=none;top=0;left=0;bottom=0;right=0;" parent="639" vertex="1">
                    <mxGeometry x="101" width="19" height="1" as="geometry"/>
                </mxCell>
                <mxCell id="646" value="" style="shape=partialRectangle;html=1;whiteSpace=wrap;connectable=0;overflow=hidden;fillColor=none;top=0;left=0;bottom=0;right=0;" parent="639" vertex="1">
                    <mxGeometry x="120" width="19" height="1" as="geometry"/>
                </mxCell>
                <mxCell id="647" value="" style="shape=partialRectangle;html=1;whiteSpace=wrap;connectable=0;overflow=hidden;fillColor=none;top=0;left=0;bottom=0;right=0;" parent="639" vertex="1">
                    <mxGeometry x="139" width="19" height="1" as="geometry"/>
                </mxCell>
                <mxCell id="648" value="" style="shape=partialRectangle;html=1;whiteSpace=wrap;connectable=0;overflow=hidden;fillColor=none;top=0;left=0;bottom=0;right=0;" parent="639" vertex="1">
                    <mxGeometry x="158" width="20" height="1" as="geometry"/>
                </mxCell>
                <mxCell id="649" value="" style="shape=partialRectangle;html=1;whiteSpace=wrap;connectable=0;overflow=hidden;fillColor=none;top=0;left=0;bottom=0;right=0;" parent="639" vertex="1">
                    <mxGeometry x="178" width="19" height="1" as="geometry"/>
                </mxCell>
                <mxCell id="650" value="" style="shape=partialRectangle;html=1;whiteSpace=wrap;connectable=0;overflow=hidden;fillColor=none;top=0;left=0;bottom=0;right=0;" parent="639" vertex="1">
                    <mxGeometry x="197" width="24" height="1" as="geometry"/>
                </mxCell>
                <mxCell id="651" value="" style="shape=partialRectangle;html=1;whiteSpace=wrap;connectable=0;overflow=hidden;fillColor=none;top=0;left=0;bottom=0;right=0;" parent="639" vertex="1">
                    <mxGeometry x="221" width="19" height="1" as="geometry"/>
                </mxCell>
                <mxCell id="652" value="" style="shape=partialRectangle;collapsible=0;dropTarget=0;pointerEvents=0;fillColor=none;top=0;left=0;bottom=0;right=0;points=[[0,0.5],[1,0.5]];portConstraint=eastwest;" parent="573" vertex="1">
                    <mxGeometry y="5" width="240" height="1" as="geometry"/>
                </mxCell>
                <mxCell id="653" value="" style="shape=partialRectangle;html=1;whiteSpace=wrap;connectable=0;overflow=hidden;fillColor=none;top=0;left=0;bottom=0;right=0;" parent="652" vertex="1">
                    <mxGeometry width="19" height="1" as="geometry"/>
                </mxCell>
                <mxCell id="654" value="" style="shape=partialRectangle;html=1;whiteSpace=wrap;connectable=0;overflow=hidden;fillColor=none;top=0;left=0;bottom=0;right=0;" parent="652" vertex="1">
                    <mxGeometry x="19" width="19" height="1" as="geometry"/>
                </mxCell>
                <mxCell id="655" value="" style="shape=partialRectangle;html=1;whiteSpace=wrap;connectable=0;overflow=hidden;fillColor=none;top=0;left=0;bottom=0;right=0;" parent="652" vertex="1">
                    <mxGeometry x="38" width="24" height="1" as="geometry"/>
                </mxCell>
                <mxCell id="656" value="" style="shape=partialRectangle;html=1;whiteSpace=wrap;connectable=0;overflow=hidden;fillColor=none;top=0;left=0;bottom=0;right=0;" parent="652" vertex="1">
                    <mxGeometry x="62" width="20" height="1" as="geometry"/>
                </mxCell>
                <mxCell id="657" value="" style="shape=partialRectangle;html=1;whiteSpace=wrap;connectable=0;overflow=hidden;fillColor=none;top=0;left=0;bottom=0;right=0;" parent="652" vertex="1">
                    <mxGeometry x="82" width="19" height="1" as="geometry"/>
                </mxCell>
                <mxCell id="658" value="" style="shape=partialRectangle;html=1;whiteSpace=wrap;connectable=0;overflow=hidden;fillColor=none;top=0;left=0;bottom=0;right=0;" parent="652" vertex="1">
                    <mxGeometry x="101" width="19" height="1" as="geometry"/>
                </mxCell>
                <mxCell id="659" value="" style="shape=partialRectangle;html=1;whiteSpace=wrap;connectable=0;overflow=hidden;fillColor=none;top=0;left=0;bottom=0;right=0;" parent="652" vertex="1">
                    <mxGeometry x="120" width="19" height="1" as="geometry"/>
                </mxCell>
                <mxCell id="660" value="" style="shape=partialRectangle;html=1;whiteSpace=wrap;connectable=0;overflow=hidden;fillColor=none;top=0;left=0;bottom=0;right=0;" parent="652" vertex="1">
                    <mxGeometry x="139" width="19" height="1" as="geometry"/>
                </mxCell>
                <mxCell id="661" value="" style="shape=partialRectangle;html=1;whiteSpace=wrap;connectable=0;overflow=hidden;fillColor=none;top=0;left=0;bottom=0;right=0;" parent="652" vertex="1">
                    <mxGeometry x="158" width="20" height="1" as="geometry"/>
                </mxCell>
                <mxCell id="662" value="" style="shape=partialRectangle;html=1;whiteSpace=wrap;connectable=0;overflow=hidden;fillColor=none;top=0;left=0;bottom=0;right=0;" parent="652" vertex="1">
                    <mxGeometry x="178" width="19" height="1" as="geometry"/>
                </mxCell>
                <mxCell id="663" value="" style="shape=partialRectangle;html=1;whiteSpace=wrap;connectable=0;overflow=hidden;fillColor=none;top=0;left=0;bottom=0;right=0;" parent="652" vertex="1">
                    <mxGeometry x="197" width="24" height="1" as="geometry"/>
                </mxCell>
                <mxCell id="664" value="" style="shape=partialRectangle;html=1;whiteSpace=wrap;connectable=0;overflow=hidden;fillColor=none;top=0;left=0;bottom=0;right=0;" parent="652" vertex="1">
                    <mxGeometry x="221" width="19" height="1" as="geometry"/>
                </mxCell>
                <mxCell id="665" value="" style="shape=partialRectangle;collapsible=0;dropTarget=0;pointerEvents=0;fillColor=none;top=0;left=0;bottom=0;right=0;points=[[0,0.5],[1,0.5]];portConstraint=eastwest;" parent="573" vertex="1">
                    <mxGeometry y="6" width="240" height="1" as="geometry"/>
                </mxCell>
                <mxCell id="666" value="" style="shape=partialRectangle;html=1;whiteSpace=wrap;connectable=0;overflow=hidden;fillColor=none;top=0;left=0;bottom=0;right=0;" parent="665" vertex="1">
                    <mxGeometry width="19" height="1" as="geometry"/>
                </mxCell>
                <mxCell id="667" value="" style="shape=partialRectangle;html=1;whiteSpace=wrap;connectable=0;overflow=hidden;fillColor=none;top=0;left=0;bottom=0;right=0;" parent="665" vertex="1">
                    <mxGeometry x="19" width="19" height="1" as="geometry"/>
                </mxCell>
                <mxCell id="668" value="" style="shape=partialRectangle;html=1;whiteSpace=wrap;connectable=0;overflow=hidden;fillColor=none;top=0;left=0;bottom=0;right=0;" parent="665" vertex="1">
                    <mxGeometry x="38" width="24" height="1" as="geometry"/>
                </mxCell>
                <mxCell id="669" value="" style="shape=partialRectangle;html=1;whiteSpace=wrap;connectable=0;overflow=hidden;fillColor=none;top=0;left=0;bottom=0;right=0;" parent="665" vertex="1">
                    <mxGeometry x="62" width="20" height="1" as="geometry"/>
                </mxCell>
                <mxCell id="670" value="" style="shape=partialRectangle;html=1;whiteSpace=wrap;connectable=0;overflow=hidden;fillColor=none;top=0;left=0;bottom=0;right=0;" parent="665" vertex="1">
                    <mxGeometry x="82" width="19" height="1" as="geometry"/>
                </mxCell>
                <mxCell id="671" value="" style="shape=partialRectangle;html=1;whiteSpace=wrap;connectable=0;overflow=hidden;fillColor=none;top=0;left=0;bottom=0;right=0;" parent="665" vertex="1">
                    <mxGeometry x="101" width="19" height="1" as="geometry"/>
                </mxCell>
                <mxCell id="672" value="" style="shape=partialRectangle;html=1;whiteSpace=wrap;connectable=0;overflow=hidden;fillColor=none;top=0;left=0;bottom=0;right=0;" parent="665" vertex="1">
                    <mxGeometry x="120" width="19" height="1" as="geometry"/>
                </mxCell>
                <mxCell id="673" value="" style="shape=partialRectangle;html=1;whiteSpace=wrap;connectable=0;overflow=hidden;fillColor=none;top=0;left=0;bottom=0;right=0;" parent="665" vertex="1">
                    <mxGeometry x="139" width="19" height="1" as="geometry"/>
                </mxCell>
                <mxCell id="674" value="" style="shape=partialRectangle;html=1;whiteSpace=wrap;connectable=0;overflow=hidden;fillColor=none;top=0;left=0;bottom=0;right=0;" parent="665" vertex="1">
                    <mxGeometry x="158" width="20" height="1" as="geometry"/>
                </mxCell>
                <mxCell id="675" value="" style="shape=partialRectangle;html=1;whiteSpace=wrap;connectable=0;overflow=hidden;fillColor=none;top=0;left=0;bottom=0;right=0;" parent="665" vertex="1">
                    <mxGeometry x="178" width="19" height="1" as="geometry"/>
                </mxCell>
                <mxCell id="676" value="" style="shape=partialRectangle;html=1;whiteSpace=wrap;connectable=0;overflow=hidden;fillColor=none;top=0;left=0;bottom=0;right=0;" parent="665" vertex="1">
                    <mxGeometry x="197" width="24" height="1" as="geometry"/>
                </mxCell>
                <mxCell id="677" value="" style="shape=partialRectangle;html=1;whiteSpace=wrap;connectable=0;overflow=hidden;fillColor=none;top=0;left=0;bottom=0;right=0;" parent="665" vertex="1">
                    <mxGeometry x="221" width="19" height="1" as="geometry"/>
                </mxCell>
                <mxCell id="678" value="" style="shape=partialRectangle;collapsible=0;dropTarget=0;pointerEvents=0;fillColor=none;top=0;left=0;bottom=0;right=0;points=[[0,0.5],[1,0.5]];portConstraint=eastwest;" parent="573" vertex="1">
                    <mxGeometry y="7" width="240" height="1" as="geometry"/>
                </mxCell>
                <mxCell id="679" value="" style="shape=partialRectangle;html=1;whiteSpace=wrap;connectable=0;overflow=hidden;fillColor=none;top=0;left=0;bottom=0;right=0;" parent="678" vertex="1">
                    <mxGeometry width="19" height="1" as="geometry"/>
                </mxCell>
                <mxCell id="680" value="" style="shape=partialRectangle;html=1;whiteSpace=wrap;connectable=0;overflow=hidden;fillColor=none;top=0;left=0;bottom=0;right=0;" parent="678" vertex="1">
                    <mxGeometry x="19" width="19" height="1" as="geometry"/>
                </mxCell>
                <mxCell id="681" value="" style="shape=partialRectangle;html=1;whiteSpace=wrap;connectable=0;overflow=hidden;fillColor=none;top=0;left=0;bottom=0;right=0;" parent="678" vertex="1">
                    <mxGeometry x="38" width="24" height="1" as="geometry"/>
                </mxCell>
                <mxCell id="682" value="" style="shape=partialRectangle;html=1;whiteSpace=wrap;connectable=0;overflow=hidden;fillColor=none;top=0;left=0;bottom=0;right=0;" parent="678" vertex="1">
                    <mxGeometry x="62" width="20" height="1" as="geometry"/>
                </mxCell>
                <mxCell id="683" value="" style="shape=partialRectangle;html=1;whiteSpace=wrap;connectable=0;overflow=hidden;fillColor=none;top=0;left=0;bottom=0;right=0;" parent="678" vertex="1">
                    <mxGeometry x="82" width="19" height="1" as="geometry"/>
                </mxCell>
                <mxCell id="684" value="" style="shape=partialRectangle;html=1;whiteSpace=wrap;connectable=0;overflow=hidden;fillColor=none;top=0;left=0;bottom=0;right=0;" parent="678" vertex="1">
                    <mxGeometry x="101" width="19" height="1" as="geometry"/>
                </mxCell>
                <mxCell id="685" value="" style="shape=partialRectangle;html=1;whiteSpace=wrap;connectable=0;overflow=hidden;fillColor=none;top=0;left=0;bottom=0;right=0;" parent="678" vertex="1">
                    <mxGeometry x="120" width="19" height="1" as="geometry"/>
                </mxCell>
                <mxCell id="686" value="" style="shape=partialRectangle;html=1;whiteSpace=wrap;connectable=0;overflow=hidden;fillColor=none;top=0;left=0;bottom=0;right=0;" parent="678" vertex="1">
                    <mxGeometry x="139" width="19" height="1" as="geometry"/>
                </mxCell>
                <mxCell id="687" value="" style="shape=partialRectangle;html=1;whiteSpace=wrap;connectable=0;overflow=hidden;fillColor=none;top=0;left=0;bottom=0;right=0;" parent="678" vertex="1">
                    <mxGeometry x="158" width="20" height="1" as="geometry"/>
                </mxCell>
                <mxCell id="688" value="" style="shape=partialRectangle;html=1;whiteSpace=wrap;connectable=0;overflow=hidden;fillColor=none;top=0;left=0;bottom=0;right=0;" parent="678" vertex="1">
                    <mxGeometry x="178" width="19" height="1" as="geometry"/>
                </mxCell>
                <mxCell id="689" value="" style="shape=partialRectangle;html=1;whiteSpace=wrap;connectable=0;overflow=hidden;fillColor=none;top=0;left=0;bottom=0;right=0;" parent="678" vertex="1">
                    <mxGeometry x="197" width="24" height="1" as="geometry"/>
                </mxCell>
                <mxCell id="690" value="" style="shape=partialRectangle;html=1;whiteSpace=wrap;connectable=0;overflow=hidden;fillColor=none;top=0;left=0;bottom=0;right=0;" parent="678" vertex="1">
                    <mxGeometry x="221" width="19" height="1" as="geometry"/>
                </mxCell>
                <mxCell id="691" value="" style="shape=partialRectangle;collapsible=0;dropTarget=0;pointerEvents=0;fillColor=none;top=0;left=0;bottom=0;right=0;points=[[0,0.5],[1,0.5]];portConstraint=eastwest;" parent="573" vertex="1">
                    <mxGeometry y="8" width="240" as="geometry"/>
                </mxCell>
                <mxCell id="692" value="" style="shape=partialRectangle;html=1;whiteSpace=wrap;connectable=0;overflow=hidden;fillColor=none;top=0;left=0;bottom=0;right=0;" parent="691" vertex="1">
                    <mxGeometry width="19" as="geometry"/>
                </mxCell>
                <mxCell id="693" value="" style="shape=partialRectangle;html=1;whiteSpace=wrap;connectable=0;overflow=hidden;fillColor=none;top=0;left=0;bottom=0;right=0;" parent="691" vertex="1">
                    <mxGeometry x="19" width="19" as="geometry"/>
                </mxCell>
                <mxCell id="694" value="" style="shape=partialRectangle;html=1;whiteSpace=wrap;connectable=0;overflow=hidden;fillColor=none;top=0;left=0;bottom=0;right=0;" parent="691" vertex="1">
                    <mxGeometry x="38" width="24" as="geometry"/>
                </mxCell>
                <mxCell id="695" value="" style="shape=partialRectangle;html=1;whiteSpace=wrap;connectable=0;overflow=hidden;fillColor=none;top=0;left=0;bottom=0;right=0;" parent="691" vertex="1">
                    <mxGeometry x="62" width="20" as="geometry"/>
                </mxCell>
                <mxCell id="696" value="" style="shape=partialRectangle;html=1;whiteSpace=wrap;connectable=0;overflow=hidden;fillColor=none;top=0;left=0;bottom=0;right=0;" parent="691" vertex="1">
                    <mxGeometry x="82" width="19" as="geometry"/>
                </mxCell>
                <mxCell id="697" value="" style="shape=partialRectangle;html=1;whiteSpace=wrap;connectable=0;overflow=hidden;fillColor=none;top=0;left=0;bottom=0;right=0;" parent="691" vertex="1">
                    <mxGeometry x="101" width="19" as="geometry"/>
                </mxCell>
                <mxCell id="698" value="" style="shape=partialRectangle;html=1;whiteSpace=wrap;connectable=0;overflow=hidden;fillColor=none;top=0;left=0;bottom=0;right=0;" parent="691" vertex="1">
                    <mxGeometry x="120" width="19" as="geometry"/>
                </mxCell>
                <mxCell id="699" value="" style="shape=partialRectangle;html=1;whiteSpace=wrap;connectable=0;overflow=hidden;fillColor=none;top=0;left=0;bottom=0;right=0;" parent="691" vertex="1">
                    <mxGeometry x="139" width="19" as="geometry"/>
                </mxCell>
                <mxCell id="700" value="" style="shape=partialRectangle;html=1;whiteSpace=wrap;connectable=0;overflow=hidden;fillColor=none;top=0;left=0;bottom=0;right=0;" parent="691" vertex="1">
                    <mxGeometry x="158" width="20" as="geometry"/>
                </mxCell>
                <mxCell id="701" value="" style="shape=partialRectangle;html=1;whiteSpace=wrap;connectable=0;overflow=hidden;fillColor=none;top=0;left=0;bottom=0;right=0;" parent="691" vertex="1">
                    <mxGeometry x="178" width="19" as="geometry"/>
                </mxCell>
                <mxCell id="702" value="" style="shape=partialRectangle;html=1;whiteSpace=wrap;connectable=0;overflow=hidden;fillColor=none;top=0;left=0;bottom=0;right=0;" parent="691" vertex="1">
                    <mxGeometry x="197" width="24" as="geometry"/>
                </mxCell>
                <mxCell id="703" value="" style="shape=partialRectangle;html=1;whiteSpace=wrap;connectable=0;overflow=hidden;fillColor=none;top=0;left=0;bottom=0;right=0;" parent="691" vertex="1">
                    <mxGeometry x="221" width="19" as="geometry"/>
                </mxCell>
                <mxCell id="704" value="" style="shape=partialRectangle;collapsible=0;dropTarget=0;pointerEvents=0;fillColor=none;top=0;left=0;bottom=0;right=0;points=[[0,0.5],[1,0.5]];portConstraint=eastwest;" parent="573" vertex="1">
                    <mxGeometry y="8" width="240" height="1" as="geometry"/>
                </mxCell>
                <mxCell id="705" value="" style="shape=partialRectangle;html=1;whiteSpace=wrap;connectable=0;overflow=hidden;fillColor=none;top=0;left=0;bottom=0;right=0;" parent="704" vertex="1">
                    <mxGeometry width="19" height="1" as="geometry"/>
                </mxCell>
                <mxCell id="706" value="" style="shape=partialRectangle;html=1;whiteSpace=wrap;connectable=0;overflow=hidden;fillColor=none;top=0;left=0;bottom=0;right=0;" parent="704" vertex="1">
                    <mxGeometry x="19" width="19" height="1" as="geometry"/>
                </mxCell>
                <mxCell id="707" value="" style="shape=partialRectangle;html=1;whiteSpace=wrap;connectable=0;overflow=hidden;fillColor=none;top=0;left=0;bottom=0;right=0;" parent="704" vertex="1">
                    <mxGeometry x="38" width="24" height="1" as="geometry"/>
                </mxCell>
                <mxCell id="708" value="" style="shape=partialRectangle;html=1;whiteSpace=wrap;connectable=0;overflow=hidden;fillColor=none;top=0;left=0;bottom=0;right=0;" parent="704" vertex="1">
                    <mxGeometry x="62" width="20" height="1" as="geometry"/>
                </mxCell>
                <mxCell id="709" value="" style="shape=partialRectangle;html=1;whiteSpace=wrap;connectable=0;overflow=hidden;fillColor=none;top=0;left=0;bottom=0;right=0;" parent="704" vertex="1">
                    <mxGeometry x="82" width="19" height="1" as="geometry"/>
                </mxCell>
                <mxCell id="710" value="" style="shape=partialRectangle;html=1;whiteSpace=wrap;connectable=0;overflow=hidden;fillColor=none;top=0;left=0;bottom=0;right=0;" parent="704" vertex="1">
                    <mxGeometry x="101" width="19" height="1" as="geometry"/>
                </mxCell>
                <mxCell id="711" value="" style="shape=partialRectangle;html=1;whiteSpace=wrap;connectable=0;overflow=hidden;fillColor=none;top=0;left=0;bottom=0;right=0;" parent="704" vertex="1">
                    <mxGeometry x="120" width="19" height="1" as="geometry"/>
                </mxCell>
                <mxCell id="712" value="" style="shape=partialRectangle;html=1;whiteSpace=wrap;connectable=0;overflow=hidden;fillColor=none;top=0;left=0;bottom=0;right=0;" parent="704" vertex="1">
                    <mxGeometry x="139" width="19" height="1" as="geometry"/>
                </mxCell>
                <mxCell id="713" value="" style="shape=partialRectangle;html=1;whiteSpace=wrap;connectable=0;overflow=hidden;fillColor=none;top=0;left=0;bottom=0;right=0;" parent="704" vertex="1">
                    <mxGeometry x="158" width="20" height="1" as="geometry"/>
                </mxCell>
                <mxCell id="714" value="" style="shape=partialRectangle;html=1;whiteSpace=wrap;connectable=0;overflow=hidden;fillColor=none;top=0;left=0;bottom=0;right=0;" parent="704" vertex="1">
                    <mxGeometry x="178" width="19" height="1" as="geometry"/>
                </mxCell>
                <mxCell id="715" value="" style="shape=partialRectangle;html=1;whiteSpace=wrap;connectable=0;overflow=hidden;fillColor=none;top=0;left=0;bottom=0;right=0;" parent="704" vertex="1">
                    <mxGeometry x="197" width="24" height="1" as="geometry"/>
                </mxCell>
                <mxCell id="716" value="" style="shape=partialRectangle;html=1;whiteSpace=wrap;connectable=0;overflow=hidden;fillColor=none;top=0;left=0;bottom=0;right=0;" parent="704" vertex="1">
                    <mxGeometry x="221" width="19" height="1" as="geometry"/>
                </mxCell>
                <mxCell id="717" value="" style="shape=partialRectangle;collapsible=0;dropTarget=0;pointerEvents=0;fillColor=none;top=0;left=0;bottom=0;right=0;points=[[0,0.5],[1,0.5]];portConstraint=eastwest;" parent="573" vertex="1">
                    <mxGeometry y="9" width="240" height="1" as="geometry"/>
                </mxCell>
                <mxCell id="718" value="" style="shape=partialRectangle;html=1;whiteSpace=wrap;connectable=0;overflow=hidden;fillColor=none;top=0;left=0;bottom=0;right=0;" parent="717" vertex="1">
                    <mxGeometry width="19" height="1" as="geometry"/>
                </mxCell>
                <mxCell id="719" value="" style="shape=partialRectangle;html=1;whiteSpace=wrap;connectable=0;overflow=hidden;fillColor=none;top=0;left=0;bottom=0;right=0;" parent="717" vertex="1">
                    <mxGeometry x="19" width="19" height="1" as="geometry"/>
                </mxCell>
                <mxCell id="720" value="" style="shape=partialRectangle;html=1;whiteSpace=wrap;connectable=0;overflow=hidden;fillColor=none;top=0;left=0;bottom=0;right=0;" parent="717" vertex="1">
                    <mxGeometry x="38" width="24" height="1" as="geometry"/>
                </mxCell>
                <mxCell id="721" value="" style="shape=partialRectangle;html=1;whiteSpace=wrap;connectable=0;overflow=hidden;fillColor=none;top=0;left=0;bottom=0;right=0;" parent="717" vertex="1">
                    <mxGeometry x="62" width="20" height="1" as="geometry"/>
                </mxCell>
                <mxCell id="722" value="" style="shape=partialRectangle;html=1;whiteSpace=wrap;connectable=0;overflow=hidden;fillColor=none;top=0;left=0;bottom=0;right=0;" parent="717" vertex="1">
                    <mxGeometry x="82" width="19" height="1" as="geometry"/>
                </mxCell>
                <mxCell id="723" value="" style="shape=partialRectangle;html=1;whiteSpace=wrap;connectable=0;overflow=hidden;fillColor=none;top=0;left=0;bottom=0;right=0;" parent="717" vertex="1">
                    <mxGeometry x="101" width="19" height="1" as="geometry"/>
                </mxCell>
                <mxCell id="724" value="" style="shape=partialRectangle;html=1;whiteSpace=wrap;connectable=0;overflow=hidden;fillColor=none;top=0;left=0;bottom=0;right=0;" parent="717" vertex="1">
                    <mxGeometry x="120" width="19" height="1" as="geometry"/>
                </mxCell>
                <mxCell id="725" value="" style="shape=partialRectangle;html=1;whiteSpace=wrap;connectable=0;overflow=hidden;fillColor=none;top=0;left=0;bottom=0;right=0;" parent="717" vertex="1">
                    <mxGeometry x="139" width="19" height="1" as="geometry"/>
                </mxCell>
                <mxCell id="726" value="" style="shape=partialRectangle;html=1;whiteSpace=wrap;connectable=0;overflow=hidden;fillColor=none;top=0;left=0;bottom=0;right=0;" parent="717" vertex="1">
                    <mxGeometry x="158" width="20" height="1" as="geometry"/>
                </mxCell>
                <mxCell id="727" value="" style="shape=partialRectangle;html=1;whiteSpace=wrap;connectable=0;overflow=hidden;fillColor=none;top=0;left=0;bottom=0;right=0;" parent="717" vertex="1">
                    <mxGeometry x="178" width="19" height="1" as="geometry"/>
                </mxCell>
                <mxCell id="728" value="" style="shape=partialRectangle;html=1;whiteSpace=wrap;connectable=0;overflow=hidden;fillColor=none;top=0;left=0;bottom=0;right=0;" parent="717" vertex="1">
                    <mxGeometry x="197" width="24" height="1" as="geometry"/>
                </mxCell>
                <mxCell id="729" value="" style="shape=partialRectangle;html=1;whiteSpace=wrap;connectable=0;overflow=hidden;fillColor=none;top=0;left=0;bottom=0;right=0;" parent="717" vertex="1">
                    <mxGeometry x="221" width="19" height="1" as="geometry"/>
                </mxCell>
                <mxCell id="738" value="" style="endArrow=none;html=1;fontColor=#FFFFFF;strokeColor=#000000;exitX=0.433;exitY=0;exitDx=0;exitDy=0;exitPerimeter=0;entryX=0.577;entryY=0.002;entryDx=0;entryDy=0;entryPerimeter=0;" parent="1" edge="1">
                    <mxGeometry width="50" height="50" relative="1" as="geometry">
                        <mxPoint x="-593.69" y="-870" as="sourcePoint"/>
                        <mxPoint x="-573.181" y="-869.8" as="targetPoint"/>
                        <Array as="points">
                            <mxPoint x="-583.5" y="-880"/>
                        </Array>
                    </mxGeometry>
                </mxCell>
                <mxCell id="765" style="edgeStyle=orthogonalEdgeStyle;rounded=0;orthogonalLoop=1;jettySize=auto;html=1;exitX=1;exitY=0.5;exitDx=0;exitDy=0;entryX=0;entryY=0.5;entryDx=0;entryDy=0;strokeColor=#000000;" parent="1" source="86" target="54" edge="1">
                    <mxGeometry relative="1" as="geometry"/>
                </mxCell>
                <mxCell id="766" style="edgeStyle=orthogonalEdgeStyle;rounded=0;orthogonalLoop=1;jettySize=auto;html=1;exitX=0;exitY=0.5;exitDx=0;exitDy=0;entryX=1;entryY=0.5;entryDx=0;entryDy=0;strokeColor=#000000;" parent="1" source="762" target="7" edge="1">
                    <mxGeometry relative="1" as="geometry"/>
                </mxCell>
                <mxCell id="770" value="" style="endArrow=classic;startArrow=classic;html=1;fillColor=#000000;entryX=0.512;entryY=0.998;entryDx=0;entryDy=0;strokeColor=#000000;entryPerimeter=0;" parent="1" edge="1">
                    <mxGeometry width="50" height="50" relative="1" as="geometry">
                        <mxPoint x="-582.45" y="-728" as="sourcePoint"/>
                        <mxPoint x="-582.7360000000001" y="-770.044" as="targetPoint"/>
                        <Array as="points">
                            <mxPoint x="-582.45" y="-740"/>
                            <mxPoint x="-582.45" y="-750"/>
                        </Array>
                    </mxGeometry>
                </mxCell>
                <mxCell id="771" value="" style="endArrow=classic;startArrow=classic;html=1;fillColor=#000000;strokeColor=#000000;entryX=0.51;entryY=1.004;entryDx=0;entryDy=0;entryPerimeter=0;exitX=0.511;exitY=0;exitDx=0;exitDy=0;exitPerimeter=0;" parent="1" target="22" edge="1">
                    <mxGeometry width="50" height="50" relative="1" as="geometry">
                        <mxPoint x="-582.883" y="-870" as="sourcePoint"/>
                        <mxPoint x="-583.06" y="-933.608" as="targetPoint"/>
                        <Array as="points"/>
                    </mxGeometry>
                </mxCell>
                <mxCell id="772" value="" style="endArrow=classic;startArrow=classic;html=1;fillColor=#000000;strokeColor=#000000;exitX=0.997;exitY=0.192;exitDx=0;exitDy=0;exitPerimeter=0;" parent="1" source="19" edge="1">
                    <mxGeometry width="50" height="50" relative="1" as="geometry">
                        <mxPoint x="-541" y="-1020" as="sourcePoint"/>
                        <mxPoint x="-429.99999999999994" y="-1020" as="targetPoint"/>
                        <Array as="points"/>
                    </mxGeometry>
                </mxCell>
                <mxCell id="774" value="Medios_de_pago" style="swimlane;fontStyle=0;childLayout=stackLayout;horizontal=1;startSize=26;horizontalStack=0;resizeParent=1;resizeParentMax=0;resizeLast=0;collapsible=1;marginBottom=0;fillColor=#A8DADC;strokeColor=#457B9D;fontColor=#1D3557;" parent="1" vertex="1">
                    <mxGeometry x="240" y="-1040" width="190" height="78" as="geometry"/>
                </mxCell>
                <mxCell id="775" value="id(PK) INT" style="text;strokeColor=none;fillColor=none;align=left;verticalAlign=top;spacingLeft=4;spacingRight=4;overflow=hidden;rotatable=0;points=[[0,0.5],[1,0.5]];portConstraint=eastwest;fontColor=#1D3557;" parent="774" vertex="1">
                    <mxGeometry y="26" width="190" height="26" as="geometry"/>
                </mxCell>
                <mxCell id="776" value="medio_de_pago VARCHAR (100)" style="text;strokeColor=none;fillColor=none;align=left;verticalAlign=top;spacingLeft=4;spacingRight=4;overflow=hidden;rotatable=0;points=[[0,0.5],[1,0.5]];portConstraint=eastwest;fontColor=#1D3557;" parent="774" vertex="1">
                    <mxGeometry y="52" width="190" height="26" as="geometry"/>
                </mxCell>
                <mxCell id="780" value="User_medios_de_pago" style="swimlane;fontStyle=0;childLayout=stackLayout;horizontal=1;startSize=26;horizontalStack=0;resizeParent=1;resizeParentMax=0;resizeLast=0;collapsible=1;marginBottom=0;fillColor=#A8DADC;strokeColor=#457B9D;fontColor=#1D3557;" parent="1" vertex="1">
                    <mxGeometry x="240" y="-900" width="190" height="104" as="geometry"/>
                </mxCell>
                <mxCell id="781" value="id(PK) INT" style="text;strokeColor=none;fillColor=none;align=left;verticalAlign=top;spacingLeft=4;spacingRight=4;overflow=hidden;rotatable=0;points=[[0,0.5],[1,0.5]];portConstraint=eastwest;fontColor=#1D3557;" parent="780" vertex="1">
                    <mxGeometry y="26" width="190" height="26" as="geometry"/>
                </mxCell>
                <mxCell id="782" value="user_id(FK) INT" style="text;strokeColor=none;fillColor=none;align=left;verticalAlign=top;spacingLeft=4;spacingRight=4;overflow=hidden;rotatable=0;points=[[0,0.5],[1,0.5]];portConstraint=eastwest;fontColor=#1D3557;" parent="780" vertex="1">
                    <mxGeometry y="52" width="190" height="26" as="geometry"/>
                </mxCell>
                <mxCell id="783" value="medio_de_pago_id(FK) INT" style="text;strokeColor=none;fillColor=none;align=left;verticalAlign=top;spacingLeft=4;spacingRight=4;overflow=hidden;rotatable=0;points=[[0,0.5],[1,0.5]];portConstraint=eastwest;fontColor=#1D3557;" parent="780" vertex="1">
                    <mxGeometry y="78" width="190" height="26" as="geometry"/>
                </mxCell>
                <mxCell id="786" value="" style="endArrow=classic;startArrow=classic;html=1;fillColor=#000000;strokeColor=#000000;exitX=0.997;exitY=0.192;exitDx=0;exitDy=0;exitPerimeter=0;" parent="1" edge="1">
                    <mxGeometry width="50" height="50" relative="1" as="geometry">
                        <mxPoint x="198.00099999999986" y="-840.0020000000001" as="sourcePoint"/>
                        <mxPoint x="240" y="-840" as="targetPoint"/>
                        <Array as="points"/>
                    </mxGeometry>
                </mxCell>
                <mxCell id="787" value="" style="endArrow=none;html=1;fontColor=#FFFFFF;strokeColor=#000000;" parent="1" edge="1">
                    <mxGeometry width="50" height="50" relative="1" as="geometry">
                        <mxPoint x="210" y="-830" as="sourcePoint"/>
                        <mxPoint x="210" y="-850" as="targetPoint"/>
                    </mxGeometry>
                </mxCell>
                <mxCell id="788" value="" style="endArrow=none;html=1;fontColor=#FFFFFF;entryX=0;entryY=0.049;entryDx=0;entryDy=0;entryPerimeter=0;strokeColor=#000000;exitX=-0.003;exitY=0.156;exitDx=0;exitDy=0;exitPerimeter=0;" parent="1" edge="1">
                    <mxGeometry width="50" height="50" relative="1" as="geometry">
                        <mxPoint x="239.58000000000015" y="-830.134" as="sourcePoint"/>
                        <mxPoint x="240.0000000000001" y="-849.998" as="targetPoint"/>
                        <Array as="points">
                            <mxPoint x="230.40999999999997" y="-840.19"/>
                        </Array>
                    </mxGeometry>
                </mxCell>
                <mxCell id="789" value="" style="endArrow=classic;startArrow=classic;html=1;fillColor=#000000;strokeColor=#000000;entryX=0.51;entryY=1.004;entryDx=0;entryDy=0;entryPerimeter=0;" parent="1" edge="1">
                    <mxGeometry width="50" height="50" relative="1" as="geometry">
                        <mxPoint x="330" y="-900" as="sourcePoint"/>
                        <mxPoint x="330" y="-961.996" as="targetPoint"/>
                        <Array as="points"/>
                    </mxGeometry>
                </mxCell>
                <mxCell id="790" value="" style="endArrow=none;html=1;fontColor=#FFFFFF;strokeColor=#000000;" parent="1" edge="1">
                    <mxGeometry width="50" height="50" relative="1" as="geometry">
                        <mxPoint x="320" y="-950" as="sourcePoint"/>
                        <mxPoint x="340" y="-950" as="targetPoint"/>
                    </mxGeometry>
                </mxCell>
                <mxCell id="792" value="" style="endArrow=none;html=1;fontColor=#FFFFFF;strokeColor=#000000;exitX=0.433;exitY=0;exitDx=0;exitDy=0;exitPerimeter=0;entryX=0.577;entryY=0.002;entryDx=0;entryDy=0;entryPerimeter=0;" parent="1" edge="1">
                    <mxGeometry width="50" height="50" relative="1" as="geometry">
                        <mxPoint x="320" y="-900.2" as="sourcePoint"/>
                        <mxPoint x="340.509" y="-900" as="targetPoint"/>
                        <Array as="points">
                            <mxPoint x="330.19000000000005" y="-910.2"/>
                        </Array>
                    </mxGeometry>
                </mxCell>
            </root>
        </mxGraphModel>
    </diagram>
</mxfile>